<svg xmlns="http://www.w3.org/2000/svg" xmlns:xlink="http://www.w3.org/1999/xlink" width="1100" zoomAndPan="magnify" viewBox="0 0 824.88 299.999988" height="400" preserveAspectRatio="xMidYMid meet" version="1.0"><defs><g/></defs><path fill="#000000" d="M 138.625 184.882812 C 137.609375 184.882812 136.589844 184.929688 135.578125 185.03125 C 134.5625 185.128906 133.554688 185.28125 132.554688 185.476562 C 131.554688 185.675781 130.570312 185.925781 129.59375 186.21875 C 128.617188 186.515625 127.660156 186.859375 126.71875 187.25 C 125.777344 187.636719 124.855469 188.074219 123.957031 188.554688 C 123.058594 189.035156 122.183594 189.558594 121.335938 190.125 C 120.488281 190.6875 119.671875 191.296875 118.882812 191.941406 C 118.097656 192.589844 117.34375 193.273438 116.621094 193.992188 C 115.902344 194.714844 115.21875 195.46875 114.570312 196.253906 C 113.921875 197.042969 113.316406 197.859375 112.75 198.707031 C 112.183594 199.554688 111.660156 200.429688 111.179688 201.328125 C 110.699219 202.226562 110.265625 203.144531 109.875 204.085938 C 109.484375 205.027344 109.140625 205.988281 108.84375 206.960938 C 108.550781 207.9375 108.300781 208.925781 108.101562 209.925781 C 107.902344 210.925781 107.753906 211.929688 107.65625 212.945312 C 107.554688 213.960938 107.503906 214.976562 107.503906 215.996094 C 107.503906 217.015625 107.554688 218.03125 107.652344 219.046875 C 107.753906 220.058594 107.902344 221.066406 108.101562 222.066406 C 108.300781 223.066406 108.546875 224.054688 108.84375 225.027344 C 109.140625 226.003906 109.480469 226.960938 109.871094 227.902344 C 110.261719 228.84375 110.695312 229.765625 111.175781 230.664062 C 111.65625 231.5625 112.179688 232.4375 112.746094 233.285156 C 113.3125 234.132812 113.917969 234.949219 114.566406 235.738281 C 115.210938 236.523438 115.894531 237.28125 116.617188 238 C 117.335938 238.722656 118.089844 239.40625 118.878906 240.050781 C 119.667969 240.699219 120.484375 241.304688 121.332031 241.871094 C 122.179688 242.4375 123.050781 242.960938 123.949219 243.441406 C 124.847656 243.921875 125.769531 244.355469 126.710938 244.746094 C 127.652344 245.136719 128.609375 245.480469 129.585938 245.777344 C 130.5625 246.070312 131.550781 246.320312 132.546875 246.519531 C 133.546875 246.714844 134.554688 246.867188 135.570312 246.964844 C 136.582031 247.066406 137.601562 247.117188 138.621094 247.117188 C 139.640625 247.117188 140.65625 247.066406 141.667969 246.964844 C 142.683594 246.867188 143.691406 246.71875 144.691406 246.519531 C 145.691406 246.320312 146.675781 246.074219 147.652344 245.777344 C 148.628906 245.480469 149.585938 245.136719 150.527344 244.746094 C 151.46875 244.359375 152.390625 243.921875 153.289062 243.441406 C 154.1875 242.960938 155.0625 242.4375 155.910156 241.871094 C 156.753906 241.304688 157.574219 240.699219 158.363281 240.054688 C 159.148438 239.40625 159.902344 238.722656 160.625 238.003906 C 161.34375 237.28125 162.027344 236.527344 162.675781 235.738281 C 163.320312 234.953125 163.929688 234.132812 164.496094 233.289062 C 165.058594 232.441406 165.582031 231.566406 166.0625 230.667969 C 166.542969 229.769531 166.980469 228.847656 167.371094 227.90625 C 167.761719 226.964844 168.101562 226.007812 168.398438 225.03125 C 168.695312 224.058594 168.941406 223.070312 169.140625 222.070312 C 169.339844 221.070312 169.488281 220.0625 169.589844 219.050781 C 169.6875 218.035156 169.738281 217.019531 169.738281 216 C 169.738281 214.980469 169.6875 213.964844 169.585938 212.949219 C 169.484375 211.9375 169.335938 210.929688 169.136719 209.929688 C 168.9375 208.933594 168.6875 207.945312 168.390625 206.96875 C 168.097656 205.996094 167.753906 205.039062 167.363281 204.097656 C 166.972656 203.15625 166.535156 202.234375 166.054688 201.339844 C 165.574219 200.441406 165.050781 199.566406 164.484375 198.71875 C 163.917969 197.875 163.3125 197.054688 162.667969 196.269531 C 162.019531 195.480469 161.335938 194.726562 160.617188 194.007812 C 159.898438 193.285156 159.144531 192.601562 158.355469 191.957031 C 157.570312 191.308594 156.75 190.703125 155.90625 190.136719 C 155.058594 189.570312 154.183594 189.046875 153.285156 188.566406 C 152.390625 188.085938 151.46875 187.652344 150.527344 187.261719 C 149.585938 186.871094 148.628906 186.527344 147.65625 186.230469 C 146.679688 185.933594 145.695312 185.683594 144.695312 185.484375 C 143.695312 185.285156 142.6875 185.136719 141.675781 185.035156 C 140.660156 184.933594 139.644531 184.882812 138.625 184.882812 Z M 138.625 244.980469 C 137.675781 244.980469 136.730469 244.933594 135.785156 244.839844 C 134.839844 244.75 133.902344 244.609375 132.972656 244.425781 C 132.039062 244.238281 131.121094 244.007812 130.210938 243.734375 C 129.304688 243.457031 128.410156 243.140625 127.53125 242.777344 C 126.65625 242.414062 125.796875 242.007812 124.960938 241.558594 C 124.125 241.113281 123.308594 240.625 122.519531 240.097656 C 121.730469 239.570312 120.96875 239.003906 120.234375 238.402344 C 119.5 237.800781 118.796875 237.164062 118.128906 236.492188 C 117.457031 235.820312 116.820312 235.117188 116.214844 234.386719 C 115.613281 233.652344 115.046875 232.890625 114.519531 232.101562 C 113.992188 231.3125 113.507812 230.496094 113.058594 229.660156 C 112.609375 228.824219 112.207031 227.964844 111.84375 227.089844 C 111.476562 226.210938 111.160156 225.320312 110.882812 224.410156 C 110.609375 223.5 110.378906 222.582031 110.191406 221.652344 C 110.007812 220.71875 109.867188 219.78125 109.773438 218.835938 C 109.679688 217.890625 109.632812 216.945312 109.632812 215.996094 C 109.632812 215.046875 109.679688 214.097656 109.773438 213.152344 C 109.867188 212.207031 110.007812 211.269531 110.191406 210.339844 C 110.375 209.410156 110.605469 208.488281 110.882812 207.578125 C 111.15625 206.671875 111.476562 205.777344 111.839844 204.902344 C 112.203125 204.023438 112.609375 203.167969 113.058594 202.328125 C 113.503906 201.492188 113.992188 200.679688 114.519531 199.890625 C 115.046875 199.101562 115.613281 198.339844 116.214844 197.605469 C 116.816406 196.871094 117.453125 196.167969 118.125 195.496094 C 118.796875 194.824219 119.5 194.1875 120.230469 193.585938 C 120.964844 192.984375 121.726562 192.417969 122.515625 191.890625 C 123.308594 191.363281 124.121094 190.875 124.957031 190.429688 C 125.796875 189.980469 126.652344 189.574219 127.53125 189.210938 C 128.40625 188.847656 129.300781 188.53125 130.207031 188.253906 C 131.117188 187.980469 132.035156 187.75 132.96875 187.5625 C 133.898438 187.378906 134.835938 187.238281 135.78125 187.144531 C 136.726562 187.050781 137.671875 187.007812 138.625 187.007812 C 139.574219 187.007812 140.519531 187.054688 141.464844 187.144531 C 142.410156 187.238281 143.347656 187.378906 144.277344 187.5625 C 145.210938 187.75 146.128906 187.980469 147.039062 188.253906 C 147.945312 188.53125 148.839844 188.851562 149.71875 189.214844 C 150.59375 189.578125 151.449219 189.984375 152.289062 190.429688 C 153.125 190.878906 153.9375 191.367188 154.726562 191.894531 C 155.519531 192.421875 156.28125 192.984375 157.011719 193.589844 C 157.746094 194.191406 158.449219 194.828125 159.121094 195.5 C 159.792969 196.171875 160.429688 196.875 161.03125 197.605469 C 161.632812 198.339844 162.199219 199.101562 162.726562 199.890625 C 163.253906 200.683594 163.742188 201.496094 164.1875 202.332031 C 164.636719 203.171875 165.039062 204.027344 165.402344 204.90625 C 165.765625 205.78125 166.085938 206.675781 166.363281 207.582031 C 166.636719 208.492188 166.867188 209.410156 167.050781 210.34375 C 167.238281 211.273438 167.375 212.210938 167.46875 213.15625 C 167.5625 214.101562 167.609375 215.050781 167.609375 216 C 167.605469 216.949219 167.558594 217.894531 167.464844 218.839844 C 167.371094 219.78125 167.230469 220.71875 167.042969 221.648438 C 166.859375 222.578125 166.628906 223.5 166.351562 224.40625 C 166.074219 225.3125 165.753906 226.207031 165.390625 227.082031 C 165.027344 227.957031 164.621094 228.816406 164.171875 229.652344 C 163.726562 230.488281 163.238281 231.300781 162.710938 232.089844 C 162.183594 232.878906 161.617188 233.636719 161.015625 234.371094 C 160.414062 235.105469 159.777344 235.808594 159.105469 236.476562 C 158.4375 237.148438 157.734375 237.785156 157 238.386719 C 156.265625 238.988281 155.507812 239.554688 154.71875 240.082031 C 153.929688 240.609375 153.117188 241.09375 152.28125 241.542969 C 151.441406 241.992188 150.585938 242.394531 149.710938 242.757812 C 148.835938 243.125 147.941406 243.441406 147.035156 243.71875 C 146.125 243.996094 145.207031 244.226562 144.277344 244.414062 C 143.347656 244.597656 142.410156 244.738281 141.464844 244.832031 C 140.523438 244.925781 139.574219 244.972656 138.625 244.976562 Z M 138.625 244.980469 " fill-opacity="1" fill-rule="nonzero"/><path fill="#000000" d="M 138.625 167.835938 C 137.289062 167.835938 135.957031 167.898438 134.625 168.03125 C 133.292969 168.160156 131.972656 168.355469 130.660156 168.617188 C 129.351562 168.878906 128.054688 169.203125 126.773438 169.589844 C 125.496094 169.980469 124.238281 170.429688 123.003906 170.941406 C 121.765625 171.453125 120.558594 172.023438 119.378906 172.652344 C 118.199219 173.28125 117.054688 173.96875 115.941406 174.710938 C 114.832031 175.457031 113.757812 176.25 112.726562 177.097656 C 111.691406 177.945312 110.703125 178.84375 109.753906 179.789062 C 108.808594 180.734375 107.914062 181.722656 107.066406 182.757812 C 106.214844 183.792969 105.421875 184.863281 104.675781 185.976562 C 103.933594 187.085938 103.246094 188.234375 102.617188 189.414062 C 101.988281 190.589844 101.417969 191.800781 100.902344 193.035156 C 100.390625 194.269531 99.941406 195.527344 99.554688 196.808594 C 99.164062 198.085938 98.839844 199.382812 98.582031 200.691406 C 98.320312 202.003906 98.125 203.324219 97.992188 204.65625 C 97.859375 205.988281 97.796875 207.320312 97.796875 208.660156 C 97.796875 209.996094 97.859375 211.328125 97.992188 212.660156 C 98.121094 213.992188 98.320312 215.3125 98.578125 216.625 C 98.839844 217.933594 99.164062 219.230469 99.554688 220.511719 C 99.941406 221.789062 100.390625 223.046875 100.902344 224.28125 C 101.414062 225.519531 101.984375 226.726562 102.617188 227.90625 C 103.246094 229.085938 103.933594 230.230469 104.675781 231.339844 C 105.417969 232.453125 106.214844 233.527344 107.0625 234.558594 C 107.910156 235.59375 108.808594 236.582031 109.753906 237.527344 C 110.699219 238.472656 111.6875 239.371094 112.722656 240.21875 C 113.753906 241.066406 114.828125 241.863281 115.941406 242.605469 C 117.050781 243.347656 118.199219 244.035156 119.375 244.664062 C 120.554688 245.296875 121.761719 245.867188 123 246.378906 C 124.234375 246.890625 125.492188 247.339844 126.769531 247.726562 C 128.050781 248.117188 129.347656 248.441406 130.65625 248.703125 C 131.96875 248.960938 133.289062 249.160156 134.621094 249.289062 C 135.953125 249.421875 137.285156 249.484375 138.625 249.484375 C 139.960938 249.484375 141.292969 249.421875 142.625 249.289062 C 143.957031 249.15625 145.277344 248.960938 146.589844 248.699219 C 147.898438 248.441406 149.195312 248.117188 150.476562 247.726562 C 151.753906 247.339844 153.011719 246.890625 154.246094 246.378906 C 155.484375 245.867188 156.691406 245.292969 157.871094 244.664062 C 159.046875 244.035156 160.195312 243.347656 161.304688 242.605469 C 162.417969 241.859375 163.488281 241.066406 164.523438 240.21875 C 165.558594 239.367188 166.546875 238.472656 167.492188 237.527344 C 168.4375 236.582031 169.335938 235.589844 170.183594 234.558594 C 171.03125 233.523438 171.828125 232.449219 172.570312 231.339844 C 173.3125 230.226562 174 229.082031 174.628906 227.902344 C 175.257812 226.722656 175.828125 225.515625 176.339844 224.28125 C 176.851562 223.042969 177.300781 221.785156 177.691406 220.507812 C 178.078125 219.226562 178.402344 217.929688 178.664062 216.621094 C 178.925781 215.308594 179.121094 213.988281 179.25 212.65625 C 179.382812 211.324219 179.449219 209.992188 179.449219 208.65625 C 179.445312 207.316406 179.378906 205.984375 179.246094 204.65625 C 179.113281 203.324219 178.917969 202.003906 178.65625 200.695312 C 178.394531 199.382812 178.066406 198.089844 177.679688 196.808594 C 177.289062 195.53125 176.839844 194.273438 176.328125 193.039062 C 175.816406 191.804688 175.242188 190.601562 174.613281 189.421875 C 173.984375 188.242188 173.296875 187.097656 172.554688 185.988281 C 171.808594 184.875 171.015625 183.804688 170.167969 182.769531 C 169.320312 181.738281 168.421875 180.75 167.476562 179.804688 C 166.53125 178.859375 165.542969 177.960938 164.511719 177.113281 C 163.476562 176.265625 162.40625 175.472656 161.292969 174.726562 C 160.183594 173.984375 159.039062 173.300781 157.859375 172.667969 C 156.679688 172.039062 155.476562 171.464844 154.242188 170.953125 C 153.007812 170.441406 151.75 169.992188 150.472656 169.601562 C 149.191406 169.214844 147.898438 168.886719 146.585938 168.625 C 145.277344 168.363281 143.957031 168.167969 142.625 168.035156 C 141.296875 167.902344 139.964844 167.835938 138.625 167.835938 Z M 138.625 247.351562 C 137.359375 247.351562 136.09375 247.289062 134.832031 247.164062 C 133.574219 247.039062 132.320312 246.855469 131.078125 246.609375 C 129.835938 246.359375 128.605469 246.054688 127.394531 245.6875 C 126.179688 245.316406 124.988281 244.890625 123.816406 244.40625 C 122.648438 243.921875 121.503906 243.382812 120.382812 242.785156 C 119.265625 242.1875 118.179688 241.535156 117.128906 240.832031 C 116.074219 240.128906 115.054688 239.375 114.078125 238.570312 C 113.097656 237.765625 112.160156 236.914062 111.261719 236.019531 C 110.367188 235.125 109.515625 234.1875 108.710938 233.207031 C 107.90625 232.226562 107.152344 231.210938 106.449219 230.15625 C 105.746094 229.101562 105.09375 228.015625 104.496094 226.898438 C 103.898438 225.78125 103.359375 224.636719 102.871094 223.464844 C 102.386719 222.296875 101.960938 221.105469 101.59375 219.890625 C 101.226562 218.679688 100.917969 217.449219 100.671875 216.207031 C 100.421875 214.964844 100.238281 213.710938 100.113281 212.453125 C 99.988281 211.191406 99.925781 209.925781 99.925781 208.660156 C 99.925781 207.390625 99.988281 206.125 100.113281 204.867188 C 100.234375 203.605469 100.421875 202.351562 100.667969 201.109375 C 100.914062 199.867188 101.222656 198.636719 101.589844 197.425781 C 101.957031 196.210938 102.386719 195.019531 102.871094 193.847656 C 103.355469 192.679688 103.894531 191.535156 104.492188 190.417969 C 105.089844 189.296875 105.742188 188.210938 106.445312 187.160156 C 107.148438 186.105469 107.902344 185.089844 108.707031 184.109375 C 109.511719 183.128906 110.363281 182.191406 111.257812 181.292969 C 112.152344 180.398438 113.089844 179.546875 114.070312 178.746094 C 115.050781 177.941406 116.066406 177.1875 117.121094 176.480469 C 118.175781 175.777344 119.261719 175.125 120.378906 174.53125 C 121.496094 173.933594 122.640625 173.390625 123.8125 172.90625 C 124.980469 172.421875 126.175781 171.992188 127.386719 171.625 C 128.597656 171.257812 129.828125 170.949219 131.070312 170.703125 C 132.3125 170.457031 133.566406 170.269531 134.828125 170.144531 C 136.089844 170.019531 137.351562 169.960938 138.621094 169.960938 C 139.886719 169.960938 141.152344 170.019531 142.414062 170.144531 C 143.675781 170.269531 144.925781 170.457031 146.167969 170.703125 C 147.414062 170.949219 148.640625 171.257812 149.851562 171.625 C 151.066406 171.992188 152.257812 172.417969 153.429688 172.902344 C 154.597656 173.390625 155.742188 173.929688 156.863281 174.527344 C 157.980469 175.125 159.066406 175.777344 160.117188 176.480469 C 161.171875 177.183594 162.1875 177.9375 163.167969 178.742188 C 164.148438 179.546875 165.085938 180.394531 165.984375 181.292969 C 166.878906 182.1875 167.730469 183.125 168.53125 184.105469 C 169.335938 185.085938 170.089844 186.101562 170.796875 187.15625 C 171.5 188.210938 172.148438 189.296875 172.746094 190.414062 C 173.34375 191.53125 173.886719 192.675781 174.371094 193.847656 C 174.855469 195.015625 175.28125 196.207031 175.652344 197.421875 C 176.019531 198.632812 176.328125 199.863281 176.574219 201.105469 C 176.820312 202.347656 177.007812 203.601562 177.128906 204.863281 C 177.253906 206.125 177.316406 207.386719 177.316406 208.65625 C 177.316406 209.921875 177.253906 211.183594 177.128906 212.445312 C 177 213.707031 176.816406 214.957031 176.566406 216.199219 C 176.320312 217.441406 176.011719 218.667969 175.640625 219.882812 C 175.273438 221.09375 174.847656 222.285156 174.359375 223.457031 C 173.875 224.625 173.332031 225.769531 172.734375 226.886719 C 172.140625 228.003906 171.488281 229.089844 170.785156 230.140625 C 170.078125 231.195312 169.324219 232.210938 168.523438 233.191406 C 167.71875 234.167969 166.867188 235.105469 165.972656 236.003906 C 165.078125 236.898438 164.140625 237.75 163.160156 238.550781 C 162.179688 239.355469 161.164062 240.109375 160.113281 240.8125 C 159.058594 241.519531 157.972656 242.167969 156.855469 242.765625 C 155.742188 243.363281 154.597656 243.90625 153.425781 244.390625 C 152.257812 244.878906 151.066406 245.304688 149.855469 245.671875 C 148.640625 246.042969 147.414062 246.351562 146.171875 246.597656 C 144.929688 246.847656 143.679688 247.035156 142.417969 247.160156 C 141.15625 247.285156 139.894531 247.347656 138.625 247.351562 Z M 138.625 247.351562 " fill-opacity="1" fill-rule="nonzero"/><path fill="#000000" d="M 138.625 150.78125 C 136.972656 150.78125 135.320312 150.863281 133.671875 151.023438 C 132.027344 151.1875 130.390625 151.429688 128.765625 151.75 C 127.144531 152.074219 125.539062 152.476562 123.957031 152.957031 C 122.371094 153.4375 120.816406 153.992188 119.285156 154.625 C 117.757812 155.261719 116.261719 155.96875 114.804688 156.746094 C 113.34375 157.527344 111.925781 158.378906 110.546875 159.296875 C 109.171875 160.214844 107.84375 161.199219 106.566406 162.25 C 105.285156 163.300781 104.0625 164.410156 102.890625 165.582031 C 101.71875 166.75 100.609375 167.976562 99.558594 169.253906 C 98.507812 170.535156 97.523438 171.863281 96.605469 173.238281 C 95.683594 174.617188 94.835938 176.035156 94.054688 177.492188 C 93.273438 178.953125 92.566406 180.445312 91.933594 181.976562 C 91.300781 183.503906 90.742188 185.0625 90.261719 186.644531 C 89.78125 188.230469 89.382812 189.832031 89.058594 191.457031 C 88.734375 193.082031 88.492188 194.714844 88.332031 196.363281 C 88.167969 198.011719 88.085938 199.660156 88.085938 201.316406 C 88.085938 202.972656 88.167969 204.621094 88.332031 206.269531 C 88.492188 207.917969 88.734375 209.550781 89.058594 211.175781 C 89.382812 212.800781 89.78125 214.402344 90.261719 215.988281 C 90.742188 217.570312 91.300781 219.125 91.933594 220.65625 C 92.566406 222.183594 93.273438 223.679688 94.054688 225.140625 C 94.835938 226.597656 95.683594 228.015625 96.605469 229.394531 C 97.523438 230.769531 98.507812 232.097656 99.558594 233.375 C 100.609375 234.65625 101.71875 235.882812 102.890625 237.050781 C 104.058594 238.222656 105.285156 239.332031 106.566406 240.382812 C 107.84375 241.433594 109.171875 242.417969 110.546875 243.335938 C 111.925781 244.253906 113.34375 245.105469 114.804688 245.886719 C 116.261719 246.664062 117.757812 247.371094 119.285156 248.003906 C 120.816406 248.640625 122.371094 249.195312 123.957031 249.675781 C 125.539062 250.15625 127.144531 250.558594 128.765625 250.878906 C 130.390625 251.203125 132.027344 251.445312 133.671875 251.609375 C 135.320312 251.769531 136.972656 251.851562 138.625 251.851562 C 140.28125 251.851562 141.933594 251.769531 143.582031 251.605469 C 145.226562 251.445312 146.863281 251.203125 148.484375 250.878906 C 150.109375 250.554688 151.714844 250.152344 153.296875 249.671875 C 154.878906 249.191406 156.4375 248.636719 157.964844 248 C 159.496094 247.367188 160.988281 246.660156 162.449219 245.878906 C 163.910156 245.101562 165.328125 244.25 166.703125 243.328125 C 168.078125 242.410156 169.40625 241.425781 170.6875 240.375 C 171.964844 239.324219 173.191406 238.214844 174.359375 237.042969 C 175.53125 235.875 176.640625 234.648438 177.691406 233.367188 C 178.738281 232.089844 179.726562 230.761719 180.644531 229.382812 C 181.5625 228.007812 182.414062 226.589844 183.191406 225.128906 C 183.972656 223.671875 184.679688 222.175781 185.3125 220.644531 C 185.945312 219.117188 186.503906 217.558594 186.984375 215.976562 C 187.460938 214.390625 187.863281 212.789062 188.1875 211.164062 C 188.507812 209.542969 188.75 207.90625 188.914062 206.257812 C 189.074219 204.613281 189.15625 202.960938 189.15625 201.304688 C 189.152344 199.652344 189.070312 198 188.90625 196.355469 C 188.742188 194.710938 188.496094 193.074219 188.171875 191.453125 C 187.847656 189.832031 187.445312 188.230469 186.964844 186.644531 C 186.484375 185.0625 185.925781 183.507812 185.289062 181.980469 C 184.65625 180.453125 183.949219 178.960938 183.167969 177.5 C 182.386719 176.042969 181.539062 174.625 180.617188 173.25 C 179.699219 171.875 178.714844 170.546875 177.664062 169.269531 C 176.613281 167.992188 175.503906 166.769531 174.335938 165.597656 C 173.164062 164.429688 171.941406 163.320312 170.664062 162.269531 C 169.382812 161.21875 168.058594 160.234375 166.683594 159.316406 C 165.308594 158.398438 163.890625 157.546875 162.433594 156.765625 C 160.972656 155.984375 159.480469 155.277344 157.953125 154.644531 C 156.425781 154.011719 154.867188 153.453125 153.285156 152.972656 C 151.703125 152.488281 150.101562 152.085938 148.480469 151.761719 C 146.855469 151.4375 145.222656 151.195312 143.578125 151.03125 C 141.929688 150.867188 140.28125 150.785156 138.625 150.78125 Z M 138.625 249.714844 C 137.042969 249.714844 135.460938 249.636719 133.882812 249.484375 C 132.304688 249.328125 130.738281 249.09375 129.183594 248.785156 C 127.628906 248.476562 126.09375 248.09375 124.574219 247.632812 C 123.058594 247.171875 121.566406 246.640625 120.101562 246.03125 C 118.636719 245.425781 117.207031 244.75 115.808594 244.003906 C 114.410156 243.253906 113.050781 242.441406 111.734375 241.558594 C 110.414062 240.679688 109.144531 239.738281 107.917969 238.730469 C 106.691406 237.726562 105.519531 236.664062 104.398438 235.542969 C 103.277344 234.421875 102.214844 233.246094 101.207031 232.023438 C 100.203125 230.796875 99.257812 229.523438 98.378906 228.207031 C 97.496094 226.890625 96.683594 225.53125 95.933594 224.132812 C 95.1875 222.734375 94.511719 221.304688 93.902344 219.839844 C 93.296875 218.375 92.761719 216.882812 92.304688 215.367188 C 91.84375 213.851562 91.457031 212.3125 91.148438 210.757812 C 90.839844 209.203125 90.605469 207.636719 90.449219 206.0625 C 90.296875 204.484375 90.21875 202.902344 90.21875 201.316406 C 90.21875 199.730469 90.292969 198.148438 90.449219 196.570312 C 90.605469 194.992188 90.835938 193.429688 91.144531 191.871094 C 91.457031 190.316406 91.839844 188.78125 92.300781 187.265625 C 92.761719 185.746094 93.292969 184.257812 93.898438 182.792969 C 94.507812 181.328125 95.183594 179.894531 95.929688 178.496094 C 96.675781 177.101562 97.492188 175.742188 98.371094 174.421875 C 99.253906 173.105469 100.195312 171.832031 101.199219 170.609375 C 102.207031 169.382812 103.269531 168.207031 104.390625 167.085938 C 105.511719 165.964844 106.683594 164.902344 107.910156 163.898438 C 109.136719 162.890625 110.40625 161.949219 111.726562 161.066406 C 113.042969 160.1875 114.402344 159.371094 115.800781 158.625 C 117.195312 157.878906 118.628906 157.199219 120.09375 156.59375 C 121.558594 155.988281 123.046875 155.453125 124.566406 154.992188 C 126.082031 154.53125 127.617188 154.148438 129.171875 153.835938 C 130.726562 153.527344 132.292969 153.296875 133.871094 153.140625 C 135.449219 152.984375 137.03125 152.90625 138.617188 152.90625 C 140.203125 152.90625 141.78125 152.984375 143.359375 153.140625 C 144.9375 153.292969 146.503906 153.527344 148.058594 153.835938 C 149.613281 154.144531 151.148438 154.53125 152.667969 154.988281 C 154.183594 155.449219 155.675781 155.984375 157.140625 156.589844 C 158.605469 157.195312 160.035156 157.871094 161.433594 158.621094 C 162.832031 159.367188 164.191406 160.179688 165.507812 161.0625 C 166.828125 161.941406 168.097656 162.886719 169.324219 163.890625 C 170.550781 164.894531 171.722656 165.960938 172.84375 167.082031 C 173.964844 168.199219 175.027344 169.375 176.035156 170.597656 C 177.039062 171.824219 177.984375 173.097656 178.863281 174.414062 C 179.746094 175.734375 180.558594 177.089844 181.308594 178.488281 C 182.054688 179.886719 182.730469 181.316406 183.339844 182.78125 C 183.945312 184.246094 184.480469 185.738281 184.941406 187.253906 C 185.398438 188.773438 185.785156 190.308594 186.09375 191.863281 C 186.402344 193.417969 186.636719 194.984375 186.792969 196.5625 C 186.949219 198.140625 187.027344 199.71875 187.027344 201.304688 C 187.023438 202.890625 186.945312 204.472656 186.789062 206.046875 C 186.632812 207.625 186.398438 209.191406 186.085938 210.746094 C 185.777344 212.296875 185.390625 213.832031 184.929688 215.351562 C 184.46875 216.867188 183.933594 218.355469 183.328125 219.820312 C 182.71875 221.285156 182.042969 222.714844 181.296875 224.113281 C 180.546875 225.507812 179.734375 226.867188 178.851562 228.183594 C 177.972656 229.503906 177.03125 230.773438 176.023438 232 C 175.019531 233.222656 173.957031 234.394531 172.835938 235.515625 C 171.714844 236.636719 170.542969 237.699219 169.316406 238.707031 C 168.09375 239.710938 166.820312 240.65625 165.503906 241.535156 C 164.1875 242.417969 162.828125 243.230469 161.433594 243.980469 C 160.035156 244.726562 158.605469 245.40625 157.140625 246.011719 C 155.675781 246.621094 154.1875 247.15625 152.671875 247.617188 C 151.15625 248.078125 149.621094 248.464844 148.066406 248.773438 C 146.511719 249.085938 144.945312 249.320312 143.371094 249.476562 C 141.792969 249.632812 140.210938 249.714844 138.625 249.714844 Z M 138.625 249.714844 " fill-opacity="1" fill-rule="nonzero"/><path fill="#000000" d="M 138.625 133.730469 C 136.652344 133.730469 134.683594 133.824219 132.722656 134.019531 C 130.757812 134.210938 128.808594 134.5 126.875 134.886719 C 124.9375 135.273438 123.027344 135.75 121.140625 136.324219 C 119.25 136.894531 117.394531 137.558594 115.574219 138.316406 C 113.75 139.070312 111.96875 139.914062 110.226562 140.84375 C 108.488281 141.773438 106.796875 142.785156 105.15625 143.882812 C 103.515625 144.976562 101.933594 146.152344 100.410156 147.402344 C 98.882812 148.65625 97.421875 149.980469 96.027344 151.375 C 94.632812 152.769531 93.308594 154.230469 92.058594 155.753906 C 90.808594 157.28125 89.632812 158.863281 88.535156 160.503906 C 87.441406 162.144531 86.425781 163.832031 85.496094 165.574219 C 84.566406 167.3125 83.722656 169.09375 82.96875 170.917969 C 82.214844 172.742188 81.550781 174.597656 80.976562 176.484375 C 80.40625 178.371094 79.925781 180.285156 79.542969 182.21875 C 79.15625 184.15625 78.867188 186.105469 78.675781 188.066406 C 78.480469 190.03125 78.382812 192 78.382812 193.972656 C 78.382812 195.945312 78.480469 197.914062 78.675781 199.878906 C 78.867188 201.839844 79.15625 203.789062 79.542969 205.726562 C 79.925781 207.660156 80.40625 209.570312 80.976562 211.460938 C 81.550781 213.347656 82.214844 215.203125 82.96875 217.027344 C 83.722656 218.847656 84.566406 220.628906 85.496094 222.371094 C 86.425781 224.109375 87.441406 225.800781 88.535156 227.441406 C 89.632812 229.082031 90.808594 230.664062 92.058594 232.191406 C 93.308594 233.714844 94.632812 235.175781 96.027344 236.570312 C 97.421875 237.964844 98.882812 239.289062 100.410156 240.539062 C 101.933594 241.792969 103.515625 242.964844 105.15625 244.0625 C 106.796875 245.160156 108.488281 246.171875 110.226562 247.101562 C 111.96875 248.03125 113.75 248.875 115.574219 249.628906 C 117.394531 250.382812 119.25 251.046875 121.140625 251.621094 C 123.027344 252.195312 124.9375 252.671875 126.875 253.058594 C 128.808594 253.441406 130.757812 253.730469 132.722656 253.925781 C 134.683594 254.117188 136.652344 254.214844 138.625 254.214844 C 140.601562 254.214844 142.566406 254.117188 144.53125 253.925781 C 146.496094 253.730469 148.445312 253.441406 150.378906 253.058594 C 152.316406 252.671875 154.226562 252.195312 156.113281 251.621094 C 158.003906 251.046875 159.859375 250.382812 161.679688 249.628906 C 163.503906 248.875 165.285156 248.03125 167.023438 247.101562 C 168.765625 246.171875 170.457031 245.160156 172.097656 244.0625 C 173.738281 242.964844 175.320312 241.792969 176.84375 240.539062 C 178.371094 239.289062 179.828125 237.964844 181.226562 236.570312 C 182.621094 235.175781 183.945312 233.714844 185.195312 232.191406 C 186.445312 230.664062 187.621094 229.082031 188.71875 227.441406 C 189.8125 225.800781 190.828125 224.109375 191.757812 222.371094 C 192.6875 220.628906 193.527344 218.847656 194.285156 217.027344 C 195.039062 215.203125 195.703125 213.347656 196.277344 211.460938 C 196.847656 209.570312 197.328125 207.660156 197.710938 205.726562 C 198.097656 203.789062 198.386719 201.839844 198.578125 199.878906 C 198.773438 197.914062 198.871094 195.945312 198.871094 193.972656 C 198.867188 192 198.769531 190.03125 198.574219 188.070312 C 198.378906 186.105469 198.089844 184.15625 197.703125 182.222656 C 197.316406 180.289062 196.835938 178.378906 196.261719 176.492188 C 195.6875 174.605469 195.023438 172.75 194.265625 170.929688 C 193.511719 169.105469 192.667969 167.324219 191.738281 165.585938 C 190.808594 163.847656 189.792969 162.15625 188.699219 160.519531 C 187.601562 158.878906 186.425781 157.296875 185.175781 155.773438 C 183.925781 154.246094 182.601562 152.789062 181.207031 151.394531 C 179.8125 149.996094 178.351562 148.675781 176.828125 147.421875 C 175.304688 146.171875 173.71875 144.996094 172.082031 143.902344 C 170.441406 142.804688 168.75 141.792969 167.011719 140.863281 C 165.273438 139.929688 163.492188 139.085938 161.671875 138.332031 C 159.847656 137.578125 157.996094 136.910156 156.105469 136.335938 C 154.21875 135.765625 152.308594 135.285156 150.375 134.898438 C 148.441406 134.511719 146.492188 134.21875 144.53125 134.023438 C 142.566406 133.828125 140.597656 133.730469 138.625 133.730469 Z M 138.625 252.085938 C 136.722656 252.085938 134.824219 251.992188 132.929688 251.804688 C 131.035156 251.617188 129.15625 251.339844 127.289062 250.96875 C 125.421875 250.597656 123.578125 250.136719 121.757812 249.582031 C 119.9375 249.03125 118.144531 248.390625 116.386719 247.660156 C 114.628906 246.933594 112.910156 246.121094 111.234375 245.222656 C 109.554688 244.324219 107.921875 243.347656 106.339844 242.292969 C 104.757812 241.234375 103.230469 240.101562 101.761719 238.894531 C 100.289062 237.6875 98.878906 236.410156 97.535156 235.0625 C 96.1875 233.71875 94.914062 232.308594 93.703125 230.839844 C 92.496094 229.367188 91.363281 227.839844 90.308594 226.257812 C 89.25 224.675781 88.273438 223.042969 87.375 221.367188 C 86.480469 219.6875 85.664062 217.96875 84.9375 216.210938 C 84.210938 214.453125 83.570312 212.664062 83.015625 210.839844 C 82.464844 209.019531 82.003906 207.175781 81.628906 205.308594 C 81.257812 203.441406 80.980469 201.5625 80.792969 199.667969 C 80.605469 197.773438 80.515625 195.875 80.515625 193.972656 C 80.515625 192.070312 80.605469 190.171875 80.792969 188.277344 C 80.980469 186.382812 81.257812 184.5 81.628906 182.636719 C 82.003906 180.769531 82.464844 178.925781 83.015625 177.101562 C 83.570312 175.28125 84.210938 173.492188 84.9375 171.734375 C 85.664062 169.976562 86.480469 168.257812 87.375 166.578125 C 88.273438 164.898438 89.25 163.269531 90.308594 161.6875 C 91.363281 160.105469 92.496094 158.578125 93.703125 157.105469 C 94.914062 155.632812 96.1875 154.226562 97.535156 152.878906 C 98.878906 151.535156 100.289062 150.257812 101.761719 149.050781 C 103.230469 147.84375 104.757812 146.710938 106.339844 145.652344 C 107.921875 144.597656 109.554688 143.617188 111.234375 142.722656 C 112.910156 141.824219 114.628906 141.011719 116.386719 140.28125 C 118.144531 139.554688 119.9375 138.914062 121.757812 138.363281 C 123.578125 137.808594 125.421875 137.347656 127.289062 136.976562 C 129.15625 136.605469 131.035156 136.324219 132.929688 136.140625 C 134.824219 135.953125 136.722656 135.859375 138.625 135.859375 C 140.53125 135.859375 142.429688 135.953125 144.324219 136.140625 C 146.21875 136.324219 148.097656 136.605469 149.964844 136.976562 C 151.832031 137.347656 153.675781 137.808594 155.496094 138.363281 C 157.316406 138.914062 159.105469 139.554688 160.867188 140.28125 C 162.625 141.011719 164.34375 141.824219 166.019531 142.722656 C 167.699219 143.617188 169.328125 144.597656 170.914062 145.652344 C 172.496094 146.710938 174.023438 147.84375 175.492188 149.050781 C 176.964844 150.257812 178.371094 151.535156 179.71875 152.878906 C 181.066406 154.226562 182.339844 155.632812 183.546875 157.105469 C 184.757812 158.578125 185.886719 160.105469 186.945312 161.6875 C 188.003906 163.269531 188.980469 164.898438 189.878906 166.578125 C 190.773438 168.257812 191.585938 169.976562 192.316406 171.734375 C 193.042969 173.492188 193.683594 175.28125 194.238281 177.101562 C 194.789062 178.925781 195.25 180.769531 195.621094 182.636719 C 195.996094 184.5 196.273438 186.382812 196.460938 188.277344 C 196.644531 190.171875 196.738281 192.070312 196.738281 193.972656 C 196.738281 195.875 196.640625 197.773438 196.453125 199.667969 C 196.265625 201.558594 195.984375 203.4375 195.613281 205.304688 C 195.238281 207.171875 194.777344 209.015625 194.222656 210.835938 C 193.667969 212.65625 193.027344 214.445312 192.300781 216.199219 C 191.570312 217.957031 190.757812 219.675781 189.859375 221.355469 C 188.960938 223.03125 187.984375 224.660156 186.925781 226.242188 C 185.867188 227.824219 184.734375 229.351562 183.527344 230.820312 C 182.320312 232.292969 181.046875 233.699219 179.699219 235.046875 C 178.355469 236.390625 176.945312 237.667969 175.476562 238.875 C 174.003906 240.082031 172.480469 241.214844 170.898438 242.273438 C 169.316406 243.328125 167.6875 244.304688 166.007812 245.203125 C 164.332031 246.101562 162.613281 246.914062 160.855469 247.644531 C 159.097656 248.375 157.308594 249.015625 155.488281 249.566406 C 153.667969 250.121094 151.824219 250.585938 149.960938 250.957031 C 148.09375 251.332031 146.214844 251.609375 144.320312 251.800781 C 142.425781 251.988281 140.53125 252.082031 138.625 252.085938 Z M 138.625 252.085938 " fill-opacity="1" fill-rule="nonzero"/><path fill="#000000" d="M 138.625 116.675781 C 100.054688 116.675781 68.671875 148.058594 68.671875 186.628906 C 68.671875 225.195312 100.054688 256.585938 138.625 256.585938 C 177.199219 256.585938 208.578125 225.203125 208.578125 186.628906 C 208.578125 148.054688 177.195312 116.675781 138.625 116.675781 Z M 138.625 254.453125 C 137.515625 254.453125 136.40625 254.425781 135.296875 254.375 C 134.191406 254.320312 133.082031 254.238281 131.976562 254.128906 C 130.875 254.019531 129.773438 253.882812 128.675781 253.722656 C 127.578125 253.558594 126.484375 253.367188 125.394531 253.152344 C 124.304688 252.9375 123.222656 252.691406 122.144531 252.421875 C 121.070312 252.152344 120 251.859375 118.9375 251.535156 C 117.875 251.214844 116.820312 250.867188 115.777344 250.492188 C 114.730469 250.117188 113.695312 249.71875 112.667969 249.292969 C 111.644531 248.867188 110.628906 248.417969 109.625 247.945312 C 108.621094 247.46875 107.632812 246.972656 106.652344 246.449219 C 105.671875 245.925781 104.707031 245.378906 103.753906 244.808594 C 102.804688 244.238281 101.867188 243.644531 100.941406 243.027344 C 100.019531 242.410156 99.113281 241.769531 98.222656 241.109375 C 97.328125 240.449219 96.453125 239.765625 95.597656 239.0625 C 94.738281 238.359375 93.898438 237.632812 93.074219 236.886719 C 92.253906 236.140625 91.449219 235.375 90.664062 234.59375 C 89.878906 233.808594 89.113281 233.003906 88.367188 232.179688 C 87.621094 231.359375 86.898438 230.519531 86.195312 229.660156 C 85.488281 228.800781 84.804688 227.925781 84.144531 227.035156 C 83.484375 226.144531 82.84375 225.238281 82.226562 224.3125 C 81.609375 223.390625 81.015625 222.453125 80.445312 221.5 C 79.875 220.550781 79.328125 219.582031 78.804688 218.605469 C 78.28125 217.625 77.785156 216.636719 77.308594 215.632812 C 76.835938 214.628906 76.382812 213.613281 75.960938 212.589844 C 75.535156 211.5625 75.136719 210.527344 74.761719 209.480469 C 74.386719 208.4375 74.039062 207.382812 73.714844 206.320312 C 73.394531 205.257812 73.097656 204.1875 72.828125 203.113281 C 72.558594 202.035156 72.316406 200.953125 72.097656 199.863281 C 71.882812 198.777344 71.691406 197.683594 71.53125 196.585938 C 71.367188 195.484375 71.230469 194.382812 71.121094 193.28125 C 71.011719 192.175781 70.929688 191.070312 70.875 189.960938 C 70.820312 188.851562 70.796875 187.742188 70.792969 186.632812 C 70.792969 185.523438 70.820312 184.414062 70.875 183.304688 C 70.929688 182.195312 71.011719 181.089844 71.121094 179.984375 C 71.230469 178.878906 71.367188 177.777344 71.527344 176.679688 C 71.691406 175.582031 71.882812 174.488281 72.097656 173.398438 C 72.3125 172.308594 72.558594 171.226562 72.828125 170.152344 C 73.097656 169.074219 73.390625 168.003906 73.714844 166.941406 C 74.035156 165.878906 74.386719 164.828125 74.757812 163.78125 C 75.132812 162.734375 75.53125 161.699219 75.957031 160.675781 C 76.382812 159.648438 76.832031 158.636719 77.304688 157.632812 C 77.78125 156.628906 78.277344 155.636719 78.800781 154.65625 C 79.324219 153.679688 79.871094 152.714844 80.441406 151.761719 C 81.015625 150.808594 81.609375 149.871094 82.222656 148.949219 C 82.839844 148.023438 83.480469 147.117188 84.140625 146.226562 C 84.800781 145.335938 85.484375 144.460938 86.1875 143.601562 C 86.894531 142.742188 87.617188 141.902344 88.363281 141.082031 C 89.109375 140.257812 89.875 139.453125 90.660156 138.667969 C 91.445312 137.882812 92.246094 137.121094 93.070312 136.375 C 93.890625 135.628906 94.734375 134.902344 95.589844 134.199219 C 96.449219 133.496094 97.324219 132.8125 98.214844 132.152344 C 99.105469 131.488281 100.015625 130.851562 100.9375 130.234375 C 101.859375 129.617188 102.796875 129.023438 103.75 128.453125 C 104.703125 127.882812 105.667969 127.335938 106.644531 126.8125 C 107.625 126.289062 108.617188 125.789062 109.621094 125.316406 C 110.625 124.839844 111.636719 124.390625 112.664062 123.964844 C 113.6875 123.539062 114.722656 123.140625 115.769531 122.765625 C 116.816406 122.394531 117.867188 122.046875 118.929688 121.722656 C 119.992188 121.402344 121.0625 121.105469 122.140625 120.835938 C 123.214844 120.566406 124.296875 120.320312 125.386719 120.105469 C 126.476562 119.890625 127.570312 119.699219 128.667969 119.535156 C 129.765625 119.375 130.867188 119.238281 131.972656 119.128906 C 133.074219 119.019531 134.183594 118.9375 135.292969 118.882812 C 136.398438 118.828125 137.507812 118.800781 138.621094 118.800781 C 139.730469 118.800781 140.839844 118.828125 141.949219 118.882812 C 143.054688 118.9375 144.164062 119.019531 145.269531 119.128906 C 146.371094 119.238281 147.472656 119.371094 148.570312 119.535156 C 149.671875 119.699219 150.761719 119.886719 151.851562 120.105469 C 152.941406 120.320312 154.023438 120.5625 155.101562 120.832031 C 156.175781 121.105469 157.246094 121.398438 158.308594 121.722656 C 159.371094 122.042969 160.425781 122.390625 161.46875 122.765625 C 162.515625 123.140625 163.550781 123.539062 164.578125 123.964844 C 165.601562 124.390625 166.617188 124.839844 167.621094 125.3125 C 168.625 125.789062 169.613281 126.285156 170.59375 126.808594 C 171.574219 127.332031 172.539062 127.878906 173.492188 128.449219 C 174.441406 129.019531 175.378906 129.613281 176.304688 130.230469 C 177.226562 130.847656 178.132812 131.488281 179.023438 132.148438 C 179.917969 132.808594 180.792969 133.492188 181.648438 134.195312 C 182.507812 134.902344 183.347656 135.625 184.171875 136.371094 C 184.992188 137.117188 185.796875 137.882812 186.582031 138.667969 C 187.367188 139.453125 188.132812 140.253906 188.878906 141.078125 C 189.621094 141.902344 190.347656 142.742188 191.050781 143.597656 C 191.753906 144.457031 192.4375 145.332031 193.101562 146.222656 C 193.761719 147.113281 194.398438 148.023438 195.015625 148.945312 C 195.632812 149.867188 196.226562 150.804688 196.796875 151.757812 C 197.367188 152.710938 197.914062 153.675781 198.4375 154.65625 C 198.960938 155.632812 199.460938 156.625 199.9375 157.628906 C 200.410156 158.632812 200.859375 159.644531 201.285156 160.671875 C 201.710938 161.695312 202.109375 162.734375 202.484375 163.777344 C 202.855469 164.824219 203.207031 165.875 203.527344 166.9375 C 203.847656 168 204.144531 169.070312 204.414062 170.148438 C 204.683594 171.222656 204.929688 172.308594 205.144531 173.394531 C 205.359375 174.484375 205.550781 175.578125 205.714844 176.675781 C 205.875 177.773438 206.011719 178.875 206.121094 179.980469 C 206.230469 181.085938 206.3125 182.191406 206.367188 183.300781 C 206.421875 184.410156 206.449219 185.519531 206.449219 186.628906 C 206.445312 187.738281 206.417969 188.847656 206.363281 189.953125 C 206.308594 191.0625 206.222656 192.167969 206.113281 193.273438 C 206.003906 194.378906 205.867188 195.480469 205.703125 196.578125 C 205.539062 197.671875 205.351562 198.765625 205.132812 199.855469 C 204.914062 200.941406 204.671875 202.023438 204.402344 203.101562 C 204.128906 204.175781 203.832031 205.246094 203.511719 206.308594 C 203.1875 207.371094 202.839844 208.421875 202.464844 209.46875 C 202.089844 210.511719 201.691406 211.546875 201.265625 212.570312 C 200.839844 213.597656 200.390625 214.609375 199.914062 215.613281 C 199.441406 216.617188 198.941406 217.605469 198.417969 218.585938 C 197.894531 219.5625 197.347656 220.527344 196.777344 221.480469 C 196.207031 222.433594 195.613281 223.367188 194.996094 224.292969 C 194.378906 225.214844 193.738281 226.121094 193.078125 227.011719 C 192.417969 227.902344 191.734375 228.777344 191.03125 229.636719 C 190.328125 230.492188 189.601562 231.332031 188.855469 232.15625 C 188.113281 232.976562 187.347656 233.78125 186.5625 234.566406 C 185.777344 235.351562 184.972656 236.113281 184.152344 236.859375 C 183.328125 237.605469 182.488281 238.328125 181.632812 239.035156 C 180.773438 239.738281 179.902344 240.421875 179.007812 241.082031 C 178.117188 241.742188 177.210938 242.382812 176.289062 243 C 175.367188 243.617188 174.429688 244.210938 173.476562 244.78125 C 172.527344 245.351562 171.5625 245.898438 170.582031 246.421875 C 169.605469 246.945312 168.613281 247.445312 167.613281 247.921875 C 166.609375 248.394531 165.59375 248.84375 164.570312 249.269531 C 163.542969 249.695312 162.511719 250.09375 161.464844 250.46875 C 160.421875 250.84375 159.367188 251.191406 158.304688 251.515625 C 157.246094 251.839844 156.175781 252.136719 155.101562 252.40625 C 154.023438 252.675781 152.941406 252.921875 151.851562 253.136719 C 150.765625 253.355469 149.671875 253.546875 148.574219 253.710938 C 147.476562 253.875 146.375 254.011719 145.273438 254.121094 C 144.167969 254.230469 143.0625 254.3125 141.953125 254.371094 C 140.84375 254.425781 139.738281 254.453125 138.625 254.453125 Z M 138.625 254.453125 " fill-opacity="1" fill-rule="nonzero"/><path fill="#000000" d="M 138.625 99.625 C 94.695312 99.625 58.960938 135.363281 58.960938 179.289062 C 58.960938 223.214844 94.679688 258.949219 138.625 258.949219 C 182.574219 258.949219 218.285156 223.214844 218.285156 179.289062 C 218.285156 135.363281 182.550781 99.625 138.625 99.625 Z M 138.625 256.820312 C 95.871094 256.820312 61.089844 222.039062 61.089844 179.289062 C 61.089844 136.542969 95.871094 101.753906 138.625 101.753906 C 181.378906 101.753906 216.15625 136.535156 216.15625 179.289062 C 216.15625 222.042969 181.375 256.820312 138.625 256.820312 Z M 138.625 256.820312 " fill-opacity="1" fill-rule="nonzero"/><path fill="#000000" d="M 138.625 82.570312 C 89.355469 82.570312 49.253906 122.667969 49.253906 171.945312 C 49.253906 221.222656 89.355469 261.320312 138.625 261.320312 C 187.898438 261.320312 227.996094 221.226562 227.996094 171.945312 C 227.996094 122.664062 187.90625 82.570312 138.625 82.570312 Z M 138.625 259.1875 C 90.519531 259.1875 51.382812 220.050781 51.382812 171.945312 C 51.382812 123.839844 90.519531 84.703125 138.625 84.703125 C 186.734375 84.703125 225.863281 123.839844 225.863281 171.945312 C 225.863281 220.050781 186.734375 259.1875 138.625 259.1875 Z M 138.625 259.1875 " fill-opacity="1" fill-rule="nonzero"/><path fill="#000000" d="M 138.625 65.503906 C 83.992188 65.503906 39.539062 109.972656 39.539062 164.605469 C 39.539062 219.242188 83.992188 263.664062 138.625 263.664062 C 193.261719 263.664062 237.683594 219.214844 237.683594 164.605469 C 237.683594 110 193.257812 65.503906 138.625 65.503906 Z M 138.625 261.539062 C 85.164062 261.539062 41.667969 218.042969 41.667969 164.613281 C 41.667969 111.179688 85.164062 67.632812 138.625 67.632812 C 192.089844 67.632812 235.550781 111.121094 235.550781 164.585938 C 235.550781 218.050781 192.085938 261.558594 138.625 261.558594 Z M 138.625 261.539062 " fill-opacity="1" fill-rule="nonzero"/><path fill="#000000" d="M 138.625 48.460938 C 78.632812 48.460938 29.832031 97.277344 29.832031 157.261719 C 29.832031 217.25 78.632812 266.054688 138.625 266.054688 C 198.621094 266.054688 247.417969 217.25 247.417969 157.261719 C 247.417969 97.277344 198.613281 48.460938 138.625 48.460938 Z M 138.625 263.914062 C 79.8125 263.914062 31.960938 216.066406 31.960938 157.253906 C 31.960938 98.4375 79.8125 50.589844 138.625 50.589844 C 197.441406 50.589844 245.289062 98.453125 245.289062 157.261719 C 245.289062 216.074219 197.464844 263.921875 138.625 263.921875 Z M 138.625 263.914062 " fill-opacity="1" fill-rule="nonzero"/><path fill="#000000" d="M 222.417969 66.125 C 221.046875 64.761719 219.640625 63.429688 218.203125 62.132812 C 216.765625 60.832031 215.296875 59.570312 213.796875 58.347656 C 212.296875 57.121094 210.769531 55.933594 209.210938 54.785156 C 207.652344 53.632812 206.070312 52.519531 204.457031 51.449219 C 202.84375 50.375 201.207031 49.34375 199.542969 48.351562 C 197.878906 47.359375 196.195312 46.40625 194.484375 45.496094 C 192.773438 44.589844 191.042969 43.722656 189.292969 42.894531 C 187.539062 42.070312 185.769531 41.289062 183.976562 40.550781 C 182.1875 39.8125 180.378906 39.121094 178.554688 38.46875 C 176.730469 37.820312 174.890625 37.214844 173.039062 36.65625 C 171.183594 36.097656 169.316406 35.585938 167.4375 35.117188 C 165.558594 34.648438 163.667969 34.226562 161.769531 33.851562 C 159.867188 33.476562 157.960938 33.148438 156.042969 32.867188 C 154.128906 32.585938 152.207031 32.351562 150.28125 32.164062 C 148.351562 31.976562 146.421875 31.835938 144.488281 31.746094 C 142.550781 31.652344 140.617188 31.605469 138.679688 31.609375 C 136.742188 31.609375 134.808594 31.660156 132.875 31.757812 C 130.941406 31.855469 129.007812 32 127.082031 32.191406 C 125.15625 32.382812 123.234375 32.621094 121.320312 32.90625 C 119.402344 33.195312 117.496094 33.527344 115.597656 33.90625 C 113.699219 34.285156 111.808594 34.710938 109.929688 35.183594 C 108.054688 35.65625 106.1875 36.171875 104.335938 36.734375 C 102.480469 37.300781 100.644531 37.90625 98.820312 38.5625 C 97 39.214844 95.191406 39.914062 93.402344 40.65625 C 91.613281 41.398438 89.84375 42.183594 88.09375 43.011719 C 86.34375 43.839844 84.617188 44.710938 82.910156 45.625 C 81.199219 46.539062 79.515625 47.496094 77.855469 48.492188 C 76.195312 49.488281 74.558594 50.523438 72.949219 51.597656 C 71.339844 52.675781 69.757812 53.789062 68.203125 54.945312 C 66.648438 56.097656 65.121094 57.289062 63.625 58.519531 C 62.128906 59.746094 60.660156 61.011719 59.226562 62.3125 C 57.792969 63.613281 56.390625 64.949219 55.019531 66.316406 C 53.652344 67.6875 52.316406 69.089844 51.015625 70.523438 C 49.714844 71.960938 48.449219 73.425781 47.222656 74.921875 C 45.992188 76.417969 44.800781 77.945312 43.648438 79.5 C 42.492188 81.054688 41.378906 82.636719 40.300781 84.246094 C 39.226562 85.859375 38.1875 87.492188 37.191406 89.152344 C 36.195312 90.8125 35.242188 92.5 34.328125 94.207031 C 33.414062 95.914062 32.542969 97.640625 31.714844 99.390625 C 30.886719 101.144531 30.101562 102.914062 29.359375 104.699219 C 28.617188 106.488281 27.917969 108.296875 27.265625 110.117188 C 26.609375 111.941406 26.003906 113.78125 25.4375 115.632812 C 24.875 117.484375 24.355469 119.351562 23.886719 121.230469 C 23.414062 123.105469 22.988281 124.996094 22.609375 126.894531 C 22.230469 128.792969 21.894531 130.699219 21.609375 132.617188 C 21.324219 134.53125 21.085938 136.453125 20.894531 138.378906 C 20.703125 140.308594 20.558594 142.238281 20.460938 144.171875 C 20.363281 146.105469 20.3125 148.042969 20.3125 149.976562 C 20.308594 151.914062 20.355469 153.851562 20.445312 155.785156 C 20.539062 157.71875 20.679688 159.648438 20.867188 161.578125 C 21.054688 163.503906 21.289062 165.425781 21.570312 167.34375 C 21.851562 169.257812 22.179688 171.167969 22.554688 173.066406 C 22.929688 174.964844 23.351562 176.855469 23.820312 178.734375 C 24.289062 180.613281 24.800781 182.480469 25.359375 184.335938 C 25.917969 186.1875 26.523438 188.027344 27.171875 189.851562 C 27.824219 191.675781 28.515625 193.484375 29.253906 195.273438 C 29.992188 197.066406 30.773438 198.835938 31.597656 200.589844 C 32.421875 202.339844 33.289062 204.070312 34.199219 205.78125 C 35.109375 207.492188 36.0625 209.175781 37.054688 210.839844 C 38.046875 212.503906 39.078125 214.140625 40.152344 215.753906 C 41.222656 217.367188 42.335938 218.953125 43.484375 220.507812 C 44.636719 222.066406 45.824219 223.597656 47.050781 225.09375 C 48.273438 226.59375 49.535156 228.0625 50.832031 229.5 C 52.128906 230.9375 53.460938 232.34375 54.828125 233.71875 C 56.203125 235.082031 57.605469 236.414062 59.042969 237.710938 C 60.480469 239.007812 61.949219 240.269531 63.449219 241.496094 C 64.949219 242.722656 66.480469 243.910156 68.035156 245.058594 C 69.59375 246.210938 71.179688 247.320312 72.792969 248.394531 C 74.40625 249.46875 76.042969 250.5 77.707031 251.492188 C 79.367188 252.484375 81.054688 253.4375 82.765625 254.34375 C 84.472656 255.253906 86.203125 256.121094 87.957031 256.949219 C 89.707031 257.773438 91.480469 258.554688 93.269531 259.292969 C 95.0625 260.03125 96.867188 260.722656 98.691406 261.371094 C 100.515625 262.023438 102.355469 262.625 104.210938 263.1875 C 106.066406 263.746094 107.929688 264.257812 109.8125 264.726562 C 111.691406 265.195312 113.578125 265.617188 115.480469 265.992188 C 117.378906 266.367188 119.289062 266.695312 121.203125 266.976562 C 123.121094 267.257812 125.042969 267.492188 126.96875 267.679688 C 128.894531 267.867188 130.828125 268.007812 132.761719 268.097656 C 134.695312 268.191406 136.632812 268.238281 138.566406 268.234375 C 140.503906 268.230469 142.441406 268.183594 144.375 268.085938 C 146.308594 267.988281 148.238281 267.84375 150.164062 267.652344 C 152.09375 267.460938 154.015625 267.222656 155.929688 266.9375 C 157.84375 266.648438 159.753906 266.316406 161.652344 265.9375 C 163.550781 265.558594 165.4375 265.132812 167.316406 264.660156 C 169.195312 264.1875 171.0625 263.671875 172.914062 263.105469 C 174.765625 262.542969 176.605469 261.933594 178.425781 261.28125 C 180.25 260.628906 182.054688 259.929688 183.84375 259.1875 C 185.632812 258.445312 187.402344 257.660156 189.152344 256.832031 C 190.902344 256.003906 192.632812 255.132812 194.339844 254.21875 C 196.046875 253.304688 197.730469 252.347656 199.390625 251.351562 C 201.054688 250.355469 202.6875 249.320312 204.296875 248.242188 C 205.90625 247.167969 207.492188 246.050781 209.046875 244.898438 C 210.601562 243.746094 212.128906 242.554688 213.625 241.324219 C 215.121094 240.09375 216.585938 238.832031 218.019531 237.53125 C 219.457031 236.230469 220.859375 234.894531 222.226562 233.523438 C 223.597656 232.15625 224.933594 230.753906 226.234375 229.320312 C 227.535156 227.882812 228.796875 226.417969 230.027344 224.921875 C 231.253906 223.425781 232.445312 221.898438 233.601562 220.34375 C 234.753906 218.789062 235.871094 217.207031 236.945312 215.59375 C 238.023438 213.984375 239.058594 212.351562 240.054688 210.691406 C 241.050781 209.027344 242.007812 207.34375 242.921875 205.636719 C 243.832031 203.929688 244.703125 202.199219 245.535156 200.449219 C 246.363281 198.699219 247.148438 196.929688 247.890625 195.140625 C 248.632812 193.351562 249.332031 191.546875 249.984375 189.726562 C 250.636719 187.902344 251.246094 186.0625 251.808594 184.210938 C 252.375 182.359375 252.890625 180.492188 253.363281 178.613281 C 253.835938 176.738281 254.261719 174.847656 254.640625 172.949219 C 255.019531 171.050781 255.351562 169.140625 255.636719 167.226562 C 255.925781 165.3125 256.164062 163.390625 256.355469 161.464844 C 256.546875 159.535156 256.691406 157.605469 256.789062 155.671875 C 256.886719 153.738281 256.933594 151.800781 256.9375 149.867188 C 256.9375 147.929688 256.894531 145.992188 256.800781 144.058594 C 256.707031 142.125 256.570312 140.195312 256.382812 138.265625 C 256.195312 136.339844 255.960938 134.417969 255.679688 132.5 C 255.394531 130.585938 255.066406 128.675781 254.691406 126.777344 C 254.316406 124.878906 253.894531 122.988281 253.429688 121.109375 C 252.960938 119.230469 252.449219 117.363281 251.886719 115.507812 C 251.328125 113.652344 250.726562 111.816406 250.074219 109.992188 C 249.425781 108.164062 248.730469 106.359375 247.992188 104.566406 C 247.257812 102.777344 246.476562 101.007812 245.648438 99.253906 C 244.824219 97.503906 243.957031 95.769531 243.046875 94.0625 C 242.136719 92.351562 241.1875 90.664062 240.195312 89.003906 C 239.203125 87.339844 238.167969 85.703125 237.097656 84.089844 C 236.023438 82.476562 234.914062 80.890625 233.761719 79.335938 C 232.613281 77.777344 231.425781 76.246094 230.199219 74.746094 C 228.972656 73.25 227.710938 71.78125 226.414062 70.339844 C 225.117188 68.902344 223.785156 67.5 222.417969 66.125 Z M 220.894531 232.195312 C 219.542969 233.507812 218.15625 234.789062 216.742188 236.035156 C 215.324219 237.28125 213.878906 238.492188 212.40625 239.671875 C 210.929688 240.847656 209.429688 241.984375 207.898438 243.089844 C 206.367188 244.191406 204.8125 245.257812 203.230469 246.285156 C 201.648438 247.3125 200.042969 248.300781 198.410156 249.253906 C 196.78125 250.203125 195.128906 251.109375 193.453125 251.980469 C 191.78125 252.851562 190.085938 253.675781 188.371094 254.464844 C 186.65625 255.25 184.921875 255.996094 183.171875 256.699219 C 181.421875 257.402344 179.65625 258.0625 177.871094 258.675781 C 176.089844 259.292969 174.292969 259.867188 172.480469 260.394531 C 170.671875 260.925781 168.847656 261.410156 167.011719 261.851562 C 165.179688 262.292969 163.335938 262.6875 161.480469 263.039062 C 159.628906 263.390625 157.765625 263.695312 155.898438 263.953125 C 154.027344 264.214844 152.15625 264.429688 150.277344 264.597656 C 148.398438 264.769531 146.515625 264.890625 144.628906 264.96875 C 142.746094 265.046875 140.859375 265.078125 138.972656 265.066406 C 137.085938 265.050781 135.203125 264.992188 133.316406 264.886719 C 131.433594 264.78125 129.554688 264.628906 127.679688 264.433594 C 125.800781 264.234375 123.933594 263.992188 122.066406 263.703125 C 120.203125 263.417969 118.347656 263.082031 116.5 262.703125 C 114.648438 262.328125 112.8125 261.902344 110.984375 261.433594 C 109.15625 260.96875 107.339844 260.457031 105.539062 259.898438 C 103.734375 259.34375 101.949219 258.746094 100.175781 258.101562 C 98.398438 257.457031 96.644531 256.773438 94.902344 256.042969 C 93.164062 255.316406 91.441406 254.546875 89.738281 253.734375 C 88.035156 252.921875 86.351562 252.070312 84.691406 251.175781 C 83.03125 250.28125 81.390625 249.347656 79.777344 248.371094 C 78.160156 247.398438 76.570312 246.386719 75.003906 245.335938 C 73.4375 244.285156 71.894531 243.195312 70.382812 242.070312 C 68.867188 240.945312 67.382812 239.78125 65.925781 238.585938 C 64.46875 237.386719 63.039062 236.152344 61.644531 234.886719 C 60.246094 233.617188 58.878906 232.316406 57.546875 230.984375 C 56.210938 229.648438 54.910156 228.285156 53.644531 226.886719 C 52.375 225.488281 51.144531 224.0625 49.945312 222.605469 C 48.746094 221.148438 47.585938 219.660156 46.460938 218.148438 C 45.332031 216.632812 44.246094 215.09375 43.195312 213.527344 C 42.144531 211.960938 41.128906 210.371094 40.15625 208.753906 C 39.183594 207.136719 38.25 205.5 37.355469 203.835938 C 36.460938 202.175781 35.609375 200.496094 34.796875 198.792969 C 33.984375 197.089844 33.214844 195.367188 32.484375 193.625 C 31.757812 191.886719 31.070312 190.128906 30.429688 188.355469 C 29.785156 186.582031 29.1875 184.792969 28.628906 182.992188 C 28.074219 181.1875 27.5625 179.375 27.09375 177.546875 C 26.625 175.71875 26.203125 173.878906 25.824219 172.03125 C 25.445312 170.183594 25.113281 168.328125 24.824219 166.460938 C 24.539062 164.597656 24.296875 162.726562 24.097656 160.851562 C 23.902344 158.976562 23.75 157.09375 23.644531 155.210938 C 23.539062 153.328125 23.476562 151.441406 23.464844 149.554688 C 23.449219 147.671875 23.480469 145.785156 23.558594 143.898438 C 23.636719 142.015625 23.761719 140.132812 23.929688 138.253906 C 24.101562 136.375 24.316406 134.5 24.574219 132.632812 C 24.835938 130.761719 25.140625 128.902344 25.492188 127.046875 C 25.84375 125.195312 26.238281 123.351562 26.679688 121.515625 C 27.121094 119.683594 27.605469 117.859375 28.132812 116.046875 C 28.664062 114.238281 29.234375 112.441406 29.851562 110.65625 C 30.46875 108.875 31.128906 107.109375 31.832031 105.355469 C 32.535156 103.605469 33.277344 101.875 34.066406 100.160156 C 34.851562 98.445312 35.679688 96.75 36.550781 95.074219 C 37.417969 93.402344 38.328125 91.75 39.277344 90.117188 C 40.226562 88.488281 41.214844 86.882812 42.242188 85.300781 C 43.269531 83.71875 44.335938 82.160156 45.441406 80.632812 C 46.542969 79.101562 47.683594 77.597656 48.859375 76.125 C 50.035156 74.648438 51.246094 73.203125 52.496094 71.789062 C 53.742188 70.371094 55.023438 68.988281 56.335938 67.632812 C 57.691406 66.320312 59.074219 65.039062 60.492188 63.792969 C 61.90625 62.546875 63.351562 61.332031 64.828125 60.15625 C 66.300781 58.980469 67.804688 57.839844 69.335938 56.738281 C 70.863281 55.632812 72.421875 54.570312 74.003906 53.539062 C 75.585938 52.511719 77.191406 51.523438 78.820312 50.574219 C 80.449219 49.625 82.101562 48.714844 83.777344 47.847656 C 85.453125 46.976562 87.148438 46.148438 88.863281 45.363281 C 90.574219 44.574219 92.308594 43.832031 94.058594 43.128906 C 95.8125 42.425781 97.578125 41.765625 99.359375 41.148438 C 101.144531 40.535156 102.941406 39.960938 104.75 39.429688 C 106.5625 38.902344 108.382812 38.417969 110.21875 37.976562 C 112.054688 37.535156 113.898438 37.140625 115.75 36.789062 C 117.605469 36.4375 119.464844 36.132812 121.335938 35.871094 C 123.203125 35.613281 125.078125 35.398438 126.957031 35.226562 C 128.835938 35.058594 130.714844 34.933594 132.601562 34.859375 C 134.488281 34.78125 136.371094 34.746094 138.257812 34.761719 C 140.144531 34.777344 142.03125 34.835938 143.914062 34.941406 C 145.796875 35.046875 147.679688 35.199219 149.554688 35.394531 C 151.429688 35.59375 153.300781 35.835938 155.164062 36.125 C 157.03125 36.410156 158.886719 36.746094 160.734375 37.121094 C 162.582031 37.5 164.421875 37.925781 166.246094 38.390625 C 168.074219 38.859375 169.890625 39.371094 171.695312 39.925781 C 173.496094 40.484375 175.285156 41.082031 177.058594 41.726562 C 178.832031 42.367188 180.589844 43.054688 182.328125 43.78125 C 184.070312 44.511719 185.792969 45.28125 187.492188 46.09375 C 189.195312 46.90625 190.878906 47.757812 192.539062 48.652344 C 194.203125 49.546875 195.839844 50.480469 197.457031 51.453125 C 199.070312 52.429688 200.664062 53.441406 202.230469 54.492188 C 203.796875 55.542969 205.335938 56.628906 206.851562 57.757812 C 208.363281 58.882812 209.851562 60.042969 211.308594 61.242188 C 212.765625 62.441406 214.191406 63.675781 215.589844 64.941406 C 216.984375 66.210938 218.351562 67.511719 219.6875 68.84375 C 221.019531 70.179688 222.320312 71.542969 223.589844 72.941406 C 224.855469 74.339844 226.089844 75.765625 227.285156 77.222656 C 228.484375 78.679688 229.648438 80.164062 230.773438 81.679688 C 231.898438 83.191406 232.988281 84.734375 234.039062 86.300781 C 235.089844 87.867188 236.101562 89.457031 237.074219 91.074219 C 238.050781 92.691406 238.984375 94.328125 239.875 95.988281 C 240.769531 97.652344 241.625 99.332031 242.4375 101.035156 C 243.25 102.738281 244.019531 104.460938 244.746094 106.199219 C 245.476562 107.941406 246.160156 109.699219 246.804688 111.472656 C 247.445312 113.246094 248.046875 115.035156 248.601562 116.835938 C 249.160156 118.640625 249.671875 120.453125 250.136719 122.28125 C 250.605469 124.109375 251.027344 125.949219 251.40625 127.796875 C 251.785156 129.644531 252.117188 131.5 252.40625 133.363281 C 252.695312 135.230469 252.9375 137.097656 253.132812 138.976562 C 253.332031 140.851562 253.484375 142.730469 253.589844 144.617188 C 253.695312 146.5 253.753906 148.382812 253.769531 150.269531 C 253.78125 152.15625 253.75 154.042969 253.671875 155.929688 C 253.59375 157.8125 253.472656 159.695312 253.300781 161.574219 C 253.132812 163.453125 252.917969 165.328125 252.65625 167.195312 C 252.398438 169.0625 252.089844 170.925781 251.742188 172.777344 C 251.390625 174.632812 250.992188 176.476562 250.554688 178.3125 C 250.113281 180.144531 249.628906 181.96875 249.097656 183.777344 C 248.570312 185.589844 247.996094 187.386719 247.378906 189.167969 C 246.761719 190.953125 246.105469 192.71875 245.402344 194.46875 C 244.699219 196.222656 243.953125 197.953125 243.167969 199.667969 C 242.378906 201.382812 241.550781 203.078125 240.683594 204.75 C 239.8125 206.425781 238.902344 208.078125 237.953125 209.707031 C 237.003906 211.339844 236.015625 212.945312 234.988281 214.527344 C 233.960938 216.109375 232.894531 217.664062 231.792969 219.195312 C 230.6875 220.726562 229.550781 222.230469 228.371094 223.703125 C 227.195312 225.179688 225.984375 226.625 224.738281 228.039062 C 223.492188 229.457031 222.210938 230.839844 220.894531 232.195312 Z M 220.894531 232.195312 " fill-opacity="1" fill-rule="nonzero"/><g fill="#000000" fill-opacity="1"><g transform="translate(300.513584, 193.797159)"><g><path d="M 55.671875 -86.34375 L 55.671875 -69.078125 L 25.953125 -69.078125 L 25.953125 -51.90625 L 54.421875 -51.90625 L 54.421875 -34.640625 L 25.953125 -34.640625 L 25.953125 -17.265625 L 55.671875 -17.265625 L 55.671875 0 L 6.28125 0 L 6.28125 -86.34375 Z M 55.671875 -86.34375 "/></g></g></g><g fill="#000000" fill-opacity="1"><g transform="translate(370.626905, 193.797159)"><g><path d="M 25.953125 -86.34375 L 25.953125 -17.265625 L 55.671875 -17.265625 L 55.671875 0 L 6.28125 0 L 6.28125 -86.34375 Z M 25.953125 -86.34375 "/></g></g></g><g fill="#000000" fill-opacity="1"><g transform="translate(439.170554, 193.797159)"><g><path d="M 77.65625 0 L 73.578125 -51.171875 L 73.046875 -51.171875 L 55.359375 -0.515625 L 43.640625 -0.515625 L 25.953125 -51.171875 L 25.4375 -51.171875 L 21.34375 0 L 1.671875 0 L 9.421875 -86.34375 L 30.34375 -86.34375 L 49.5 -36.53125 L 68.65625 -86.34375 L 89.578125 -86.34375 L 97.328125 0 Z M 77.65625 0 "/></g></g></g><g fill="#000000" fill-opacity="1"><g transform="translate(547.583908, 193.797159)"><g><path d="M 25.953125 -53.578125 L 25.953125 0 L 6.28125 0 L 6.28125 -86.34375 L 25.953125 -86.34375 L 60.28125 -32.75 L 60.484375 -32.75 L 60.484375 -86.34375 L 80.171875 -86.34375 L 80.171875 0 L 60.484375 0 L 26.15625 -53.578125 Z M 25.953125 -53.578125 "/></g></g></g><g fill="#000000" fill-opacity="1"><g transform="translate(643.439886, 193.797159)"><g><path d="M 0.84375 -69.078125 L 0.84375 -86.34375 L 61.53125 -86.34375 L 61.53125 -69.078125 L 41.03125 -69.078125 L 41.03125 0 L 21.34375 0 L 21.34375 -69.078125 Z M 0.84375 -69.078125 "/></g></g></g><g fill="#000000" fill-opacity="1"><g transform="translate(715.227543, 193.797159)"><g><path d="M 77.65625 0 L 73.578125 -51.171875 L 73.046875 -51.171875 L 55.359375 -0.515625 L 43.640625 -0.515625 L 25.953125 -51.171875 L 25.4375 -51.171875 L 21.34375 0 L 1.671875 0 L 9.421875 -86.34375 L 30.34375 -86.34375 L 49.5 -36.53125 L 68.65625 -86.34375 L 89.578125 -86.34375 L 97.328125 0 Z M 77.65625 0 "/></g></g></g></svg>