<svg xmlns="http://www.w3.org/2000/svg" xmlns:xlink="http://www.w3.org/1999/xlink" width="500" zoomAndPan="magnify" viewBox="0 0 375 374.999991" height="500" preserveAspectRatio="xMidYMid meet" version="1.0"><defs><clipPath id="c357430e3e"><path d="M 12.421875 12.203125 L 362.671875 12.203125 L 362.671875 362.453125 L 12.421875 362.453125 Z M 12.421875 12.203125 " clip-rule="nonzero"/></clipPath></defs><g clip-path="url(#c357430e3e)"><path fill="#004aad" d="M 186.921875 12.503906 C 90.808594 12.738281 12.589844 91.003906 12.5 187.574219 C 12.40625 283.695312 91.34375 362.308594 188.144531 362.5 C 283.683594 362.683594 362.175781 284.136719 362.367188 188.011719 C 362.542969 94.757812 287.894531 12.25 186.921875 12.503906 Z M 187.289062 21.449219 C 192.25 21.730469 196.113281 23.957031 199.316406 27.328125 C 202.796875 30.984375 205.878906 35.023438 209.53125 39.359375 C 211.351562 38.195312 213.148438 37.046875 215.519531 35.535156 C 212.589844 31.382812 210.015625 27.726562 207.367188 23.980469 C 227.136719 21.136719 274.398438 42.445312 299.25 65.523438 C 327.8125 92.035156 344.828125 124.617188 349.515625 163.753906 C 348.597656 162.996094 347.679688 162.234375 346.761719 161.476562 C 345.988281 160.839844 345.214844 160.222656 343.816406 159.082031 C 342.273438 161.132812 340.867188 162.996094 339.390625 164.957031 C 340.933594 167.003906 342.210938 168.574219 343.359375 170.230469 C 349.261719 178.75 349.382812 186.984375 342.386719 194.664062 C 337.828125 199.664062 332.4375 204.429688 326.488281 207.507812 C 316.144531 212.878906 305.355469 217.710938 294.257812 221.210938 C 281.191406 225.335938 267.617188 227.84375 254.234375 230.945312 C 251.894531 231.488281 249.847656 231.925781 247.527344 229.347656 C 245.527344 227.117188 241.328125 227.851562 239.613281 230.648438 C 237.957031 233.355469 235.777344 233.753906 233.3125 234.011719 C 205.160156 237.019531 176.964844 238.5 148.679688 236.0625 C 148.191406 236.023438 147.722656 235.726562 146.035156 235.105469 C 145.101562 224.410156 143.625 213.816406 143.378906 203.1875 C 142.890625 182.328125 143.027344 161.453125 143.050781 140.578125 C 143.050781 136.832031 142.808594 132.554688 148.632812 132.058594 C 148.28125 129.015625 149.183594 126.339844 146.394531 124.136719 C 145.339844 123.304688 144.695312 121.140625 144.847656 119.679688 C 147.195312 97.351562 150.597656 75.152344 158.414062 54.039062 C 161.640625 45.320312 166.648438 37.164062 171.636719 29.25 C 175.007812 23.894531 180.445312 21.058594 187.28125 21.449219 Z M 29.519531 160.472656 C 27.355469 161.613281 25.558594 162.5625 22.476562 164.183594 C 28.035156 128.28125 42.398438 98.0625 66.699219 72.773438 C 93.332031 45.070312 125.800781 28.558594 165.570312 22.648438 C 143.878906 54.269531 138.480469 89.304688 134.320312 124.964844 C 132.605469 125.375 131.183594 125.734375 129.746094 126.0625 C 128.539062 126.339844 127.316406 126.570312 125.847656 126.875 C 125.6875 132.152344 127.84375 135.078125 133.609375 135.019531 C 131.789062 168.320312 132.332031 201.070312 136.476562 234.511719 C 133.074219 234.511719 130.808594 234.722656 128.589844 234.480469 C 105.007812 231.820312 81.640625 227.859375 59.496094 219.0625 C 50.59375 215.53125 42.320312 210.339844 33.976562 205.519531 C 31.195312 203.914062 28.855469 201.308594 26.761719 198.792969 C 20.382812 191.144531 20.09375 183.15625 25.796875 174.964844 C 27.667969 172.273438 29.972656 169.878906 32.402344 166.964844 C 31.578125 165.109375 30.675781 163.105469 29.511719 160.488281 Z M 85.441406 318.890625 C 42.207031 285.582031 23.089844 233.171875 23.609375 208.679688 C 27.332031 211.324219 30.699219 213.925781 34.253906 216.226562 C 49.882812 226.304688 67.25 232.261719 85.226562 236.109375 C 100.390625 239.351562 115.828125 241.300781 131.144531 243.808594 C 133.132812 244.136719 135.136719 244.359375 137.691406 244.703125 C 138.777344 250.507812 139.542969 256.289062 140.980469 261.902344 C 145.023438 277.667969 148.757812 293.558594 153.742188 309.035156 C 158.765625 324.632812 166.609375 338.941406 178.210938 350.984375 C 159.644531 355.167969 113.605469 340.601562 85.433594 318.890625 Z M 215.128906 349.3125 C 216.5 347.140625 217.644531 345.304688 219.242188 342.773438 C 217.042969 341.574219 214.984375 340.449219 212.859375 339.285156 C 210.234375 341.695312 208.132812 343.898438 205.761719 345.753906 C 199.085938 350.976562 191.898438 351.375 185.636719 345.488281 C 180.34375 340.507812 175.398438 334.714844 171.871094 328.398438 C 161.351562 309.546875 155.851562 288.855469 151.617188 267.835938 C 150.179688 260.699219 149.078125 253.496094 147.648438 245.332031 C 178.082031 246.613281 207.277344 246.253906 237.046875 242.378906 C 237.816406 244.144531 238.40625 245.476562 239.027344 246.882812 L 245.898438 246.882812 C 246.703125 244.816406 247.421875 243 248.109375 241.238281 C 258.808594 238.96875 269.292969 236.949219 279.675781 234.496094 C 294.074219 231.085938 308.074219 226.425781 321.351562 219.828125 C 331.910156 214.582031 341.746094 208.304688 349.253906 198.945312 C 349.675781 198.417969 350.410156 198.148438 351.113281 197.683594 C 351.3125 268.613281 288.5 340.082031 215.136719 349.324219 Z M 215.128906 349.3125 " fill-opacity="1" fill-rule="nonzero"/></g><path fill="#004aad" d="M 233.78125 123.480469 C 230.898438 123.703125 228.511719 123.882812 225.933594 124.082031 L 225.933594 131.859375 C 233.367188 131.074219 239.667969 137.710938 248.171875 132.128906 C 247.652344 130.101562 247.726562 126.628906 246.390625 125.949219 C 243.199219 124.328125 243.140625 121.722656 242.566406 119.097656 C 241.878906 115.933594 241.296875 112.742188 240.554688 108.980469 C 237.664062 109.324219 235.285156 109.609375 232.359375 109.953125 C 232.863281 114.761719 233.296875 118.921875 233.78125 123.472656 Z M 233.78125 123.480469 " fill-opacity="1" fill-rule="nonzero"/><path fill="#004aad" d="M 311.347656 140.15625 C 304.464844 137.960938 298.089844 135.929688 290.992188 133.65625 C 290.328125 136.699219 289.816406 139.023438 289.21875 141.746094 C 295.957031 143.84375 302.097656 145.753906 308.609375 147.78125 C 309.597656 145.042969 310.332031 142.984375 311.347656 140.15625 Z M 311.347656 140.15625 " fill-opacity="1" fill-rule="nonzero"/><path fill="#004aad" d="M 229.351562 97.058594 C 232.160156 96.65625 234.546875 96.316406 238.09375 95.804688 C 236.25 89.046875 234.757812 83.5625 233.070312 77.371094 C 230.101562 78.683594 227.929688 79.640625 225.316406 80.796875 C 226.691406 86.339844 227.945312 91.410156 229.34375 97.050781 Z M 229.351562 97.058594 " fill-opacity="1" fill-rule="nonzero"/><path fill="#004aad" d="M 180.660156 130.414062 L 180.660156 123.242188 L 160.691406 123.242188 C 161.527344 126.46875 162.113281 128.769531 162.789062 131.355469 C 169.097656 131.027344 174.785156 130.722656 180.660156 130.414062 Z M 180.660156 130.414062 " fill-opacity="1" fill-rule="nonzero"/><path fill="#004aad" d="M 246.070312 147.382812 C 242.894531 147.550781 240.472656 147.679688 237.398438 147.84375 C 237.824219 152.898438 238.207031 157.378906 238.703125 163.179688 C 241.863281 163.347656 244.433594 163.480469 247.78125 163.65625 C 247.15625 157.667969 246.632812 152.75 246.070312 147.375 Z M 246.070312 147.382812 " fill-opacity="1" fill-rule="nonzero"/><path fill="#004aad" d="M 229 64.125 C 226.53125 58.253906 224.335938 53.023438 221.851562 47.105469 C 219.097656 49.085938 217.347656 50.347656 215.367188 51.777344 C 217.386719 57.128906 219.234375 62.046875 221.507812 68.0625 C 224.351562 66.574219 226.453125 65.472656 229 64.132812 Z M 229 64.125 " fill-opacity="1" fill-rule="nonzero"/><path fill="#004aad" d="M 277.773438 130.734375 C 272.210938 129.636719 267.089844 128.617188 261.203125 127.449219 C 261.027344 130.621094 260.894531 133.015625 260.734375 135.914062 C 266.285156 136.839844 271.179688 137.648438 276.488281 138.527344 C 276.960938 135.652344 277.3125 133.519531 277.773438 130.730469 Z M 277.773438 130.734375 " fill-opacity="1" fill-rule="nonzero"/><path fill="#004aad" d="M 212.09375 130.300781 L 212.09375 122.914062 L 193.988281 122.914062 C 194.355469 125.773438 194.652344 128.082031 194.941406 130.300781 Z M 212.09375 130.300781 " fill-opacity="1" fill-rule="nonzero"/><path fill="#004aad" d="M 239.597656 177.144531 C 239.835938 182.191406 240.058594 186.800781 240.28125 191.535156 L 248.851562 191.535156 C 248.59375 186.242188 248.386719 181.863281 248.15625 177.144531 Z M 239.597656 177.144531 " fill-opacity="1" fill-rule="nonzero"/><path fill="#004aad" d="M 240.671875 216.15625 C 243.757812 215.269531 246.089844 214.605469 248.292969 213.972656 L 248.292969 204.480469 C 245.351562 204.832031 243.15625 205.101562 240.671875 205.398438 Z M 240.671875 216.15625 " fill-opacity="1" fill-rule="nonzero"/><path fill="#004aad" d="M 333.050781 150.609375 C 329.6875 148.804688 326.773438 147.246094 323.386719 145.425781 C 322.382812 148.414062 321.6875 150.488281 320.746094 153.300781 C 323.964844 154.855469 326.335938 156 328.980469 157.277344 C 330.464844 154.847656 331.589844 153.019531 333.058594 150.609375 Z M 333.050781 150.609375 " fill-opacity="1" fill-rule="nonzero"/><path fill="#004aad" d="M 114.957031 136.699219 C 113.351562 133.457031 112.273438 131.273438 111.089844 128.886719 C 104.902344 130.246094 99.289062 131.476562 93.042969 132.847656 C 94.128906 135.667969 94.914062 137.703125 96.023438 140.585938 C 102.699219 139.214844 108.519531 138.015625 114.957031 136.699219 Z M 114.957031 136.699219 " fill-opacity="1" fill-rule="nonzero"/><path fill="#004aad" d="M 83.039062 143.667969 C 81.808594 140.929688 80.90625 138.925781 79.75 136.339844 C 76.304688 137.402344 73.191406 138.300781 70.125 139.339844 C 67.792969 140.125 65.519531 141.089844 62.777344 142.152344 C 63.992188 144.683594 64.941406 146.65625 66.21875 149.316406 C 72.273438 147.285156 77.441406 145.546875 83.046875 143.667969 Z M 83.039062 143.667969 " fill-opacity="1" fill-rule="nonzero"/><path fill="#004aad" d="M 53.980469 154.082031 C 52.535156 151.4375 51.429688 149.402344 50.167969 147.078125 C 46.417969 149.105469 43.398438 150.738281 40.035156 152.558594 C 41.296875 154.945312 42.304688 156.871094 43.703125 159.519531 C 47.503906 157.507812 50.527344 155.910156 53.980469 154.082031 Z M 53.980469 154.082031 " fill-opacity="1" fill-rule="nonzero"/><path fill="#004aad" d="M 228.121094 303.90625 C 230.789062 304.921875 232.648438 305.625 235.867188 306.847656 C 237.574219 300.304688 239.078125 294.558594 240.730469 288.222656 C 237.441406 287.515625 235.09375 287.011719 232.257812 286.410156 C 230.789062 292.617188 229.484375 298.167969 228.128906 303.90625 Z M 228.121094 303.90625 " fill-opacity="1" fill-rule="nonzero"/><path fill="#004aad" d="M 234.796875 273.515625 C 237.703125 273.976562 240.066406 274.34375 243.085938 274.816406 C 243.8125 269.832031 244.449219 265.488281 245.136719 260.777344 L 236.3125 260.777344 C 235.753906 265.449219 235.308594 269.164062 234.796875 273.515625 Z M 234.796875 273.515625 " fill-opacity="1" fill-rule="nonzero"/><path fill="#004aad" d="M 219.082031 327.921875 C 221.914062 329.160156 223.921875 330.046875 226.53125 331.1875 C 228.242188 327.1875 229.796875 323.578125 231.609375 319.375 C 228.664062 318.386719 226.417969 317.636719 223.894531 316.796875 C 222.210938 320.679688 220.828125 323.894531 219.082031 327.921875 Z M 219.082031 327.921875 " fill-opacity="1" fill-rule="nonzero"/></svg>